<?xml version="1.0" standalone="no"?><!DOCTYPE svg PUBLIC "-//W3C//DTD SVG 1.1//EN" "http://www.w3.org/Graphics/SVG/1.1/DTD/svg11.dtd"><svg t="1713164667613" class="icon" viewBox="0 0 1024 1024" version="1.1" xmlns="http://www.w3.org/2000/svg" p-id="12069" xmlns:xlink="http://www.w3.org/1999/xlink" width="128" height="128"><path d="M640 554.666667m-42.666667 0a42.666667 42.666667 0 1 0 85.333334 0 42.666667 42.666667 0 1 0-85.333334 0Z" fill="#ffffff" p-id="12070"></path><path d="M725.333333 469.333333m-42.666666 0a42.666667 42.666667 0 1 0 85.333333 0 42.666667 42.666667 0 1 0-85.333333 0Z" fill="#ffffff" p-id="12071"></path><path d="M426.666667 384H341.333333v85.333333H256v85.333334h85.333333v85.333333h85.333334v-85.333333h85.333333v-85.333334h-85.333333z" fill="#ffffff" p-id="12072"></path><path d="M640 213.333333H384c-164.181333 0-297.984 133.632-298.666667 298.154667v1.621333C85.930667 677.248 219.776 810.666667 384 810.666667h256c164.437333 0 298.453333-133.802667 298.666667-298.410667v-0.682667C938.026667 347.050667 804.266667 213.333333 640 213.333333z m0 512H384a213.589333 213.589333 0 0 1-213.333333-212.949333C170.794667 394.538667 266.538667 298.666667 384 298.666667h256c117.504 0 213.162667 95.872 213.333333 213.589333A213.632 213.632 0 0 1 640 725.333333z" fill="#ffffff" p-id="12073"></path></svg>