<?xml version="1.0" standalone="no"?><!DOCTYPE svg PUBLIC "-//W3C//DTD SVG 1.1//EN" "http://www.w3.org/Graphics/SVG/1.1/DTD/svg11.dtd"><svg t="1713153806398" class="icon" viewBox="0 0 1024 1024" version="1.1" xmlns="http://www.w3.org/2000/svg" p-id="9035" width="128" height="128" xmlns:xlink="http://www.w3.org/1999/xlink"><path d="M747 265.5c41 0 78.5 16.5 105.5 43.5s43.5 64 43.5 105.5l11.5 281c0.5 11-0.5 22.5-4.5 32.5-4.5 12-13 21.5-26.5 26-20.5 7.5-39.5 5.5-57-3-19-9-35-25-47.5-43.5l-93.5-138c-3 3.5-6.5 7-10 9.5-11.5 9-25.5 14-41 14-18.5 0-35.5-7.5-47.5-19.5-11-11-18-26-19.5-42H480c-1.5 16.5-8.5 31-19.5 42-12 12-29 19.5-47.5 19.5s-35.5-7.5-47.5-19.5c-4.5-4.5-8.5-9.5-11.5-15.5l-101 149c-12.5 18.5-29 35-47.5 43.5-17.5 8-36.5 10-57 3-13.5-5-22-14.5-26.5-26-4-10-5-21.5-4.5-32.5l11-281c0-41 16.5-78.5 43.5-105.5s64-43.5 105.5-43.5c21 0 41 4.5 59.5 12.5 16.5 7 31.5 17.5 44.5 30h262.5c13-12.5 28-22.5 44.5-30 18-8 38.5-12.5 59.5-12.5l-1 0.5z" fill="#263238" p-id="9036"></path><path d="M751.5 412m-115 0a115 115 0 1 0 230 0 115 115 0 1 0-230 0Z" fill="#37474F" p-id="9037"></path><path d="M271.5 418m-115 0a115 115 0 1 0 230 0 115 115 0 1 0-230 0Z" fill="#37474F" p-id="9038"></path><path d="M673 428c-9 0-16-7-16-16s7-16 16-16h48c9 0 16 7 16 16s-7 16-16 16h-48zM767.5 490.5c0 9-7 16-16 16s-16-7-16-16v-48c0-9 7-16 16-16s16 7 16 16v48zM782 428c-9 0-16-7-16-16s7-16 16-16h48c9 0 16 7 16 16s-7 16-16 16h-48zM767.5 381.5c0 9-7 16-16 16s-16-7-16-16v-48c0-9 7-16 16-16s16 7 16 16v48z" fill="#FFFDE7" p-id="9039"></path><path d="M543.5 394.5h81v32h-81zM400.5 394.5h79v32H400.5z" fill="#2196F3" p-id="9040"></path><path d="M412.5 525.5m-67 0a67 67 0 1 0 134 0 67 67 0 1 0-134 0Z" fill="#37474F" p-id="9041"></path><path d="M627 525.5m-67 0a67 67 0 1 0 134 0 67 67 0 1 0-134 0Z" fill="#37474F" p-id="9042"></path><path d="M437.5 501c-6.5-6.5-15.5-10.5-25-10.5-10 0-18.5 4-25 10.5s-10.5 15.5-10.5 25c0 10 4 18.5 10.5 25s15.5 10.5 25 10.5c10 0 18.5-4 25-10.5s10.5-15.5 10.5-25c0-10-4-18.5-10.5-25zM652 501c-6.5-6.5-15.5-10.5-25-10.5-10 0-18.5 4-25 10.5s-10.5 15.5-10.5 25c0 10 4 18.5 10.5 25s15.5 10.5 25 10.5c10 0 18.5-4 25-10.5s10.5-15.5 10.5-25c0-10-4-18.5-10.5-25z" fill="#FF9800" p-id="9043"></path><path d="M271.5 442.5c13.5 0 24 10.5 24 24s-10.5 24-24 24-24-10.5-24-24 10.5-24 24-24zM271.5 346c13.5 0 24 10.5 24 24s-10.5 24-24 24-24-10.5-24-24 10.5-24 24-24zM199.5 418c0-13.5 10.5-24 24-24s24 10.5 24 24-10.5 24-24 24-24-10.5-24-24zM295.5 418c0-13.5 10.5-24 24-24s24 10.5 24 24-10.5 24-24 24-24-10.5-24-24z" fill="#FFFDE7" p-id="9044"></path></svg>